<svg xmlns="http://www.w3.org/2000/svg" viewBox="0 0 64 64" role="img" aria-label="Switchyard">
  <defs>
    <linearGradient id="g" x1="0" y1="0" x2="1" y2="1">
      <stop stop-color="#78a6ff"/>
      <stop offset="1" stop-color="#9e7bff"/>
    </linearGradient>
  </defs>
  <rect width="64" height="64" rx="17" fill="url(#g)"/>
  <path d="M42 21.5c-2.4-2.5-5.8-3.8-10.1-3.8-6.6 0-10.8 3.4-10.8 8.7 0 5.1 3.6 7.3 10.1 8.7 4 .8 5.3 1.8 5.3 3.5 0 1.8-1.7 3-4.6 3-3.6 0-6.7-1.3-9.3-3.8l-3.7 4.7c3.2 3.4 7.5 5.1 12.8 5.1 7 0 11.6-3.6 11.6-9.2 0-5.2-3.5-7.5-10.2-9-3.9-.9-5.2-1.7-5.2-3.3 0-1.6 1.5-2.6 4.1-2.6 2.8 0 5.1 1 7.1 2.9z" fill="#07101f"/>
</svg>
